<mxfile host="app.diagrams.net" agent="Mozilla/5.0 (Windows NT 10.0; Win64; x64) AppleWebKit/537.36 (KHTML, like Gecko) Chrome/128.0.0.0 Safari/537.36" version="24.7.10">
  <diagram name="Page-1" id="UK2trQpbOXCb3EAO8iy1">
    <mxGraphModel dx="1185" dy="632" grid="1" gridSize="10" guides="1" tooltips="1" connect="1" arrows="1" fold="1" page="1" pageScale="1" pageWidth="850" pageHeight="1100" math="0" shadow="0">
      <root>
        <mxCell id="0" />
        <mxCell id="1" parent="0" />
        <mxCell id="Zey2sAS4SiDRhGzXNSXf-5" value="" style="edgeStyle=orthogonalEdgeStyle;rounded=0;orthogonalLoop=1;jettySize=auto;html=1;" edge="1" parent="1" source="Zey2sAS4SiDRhGzXNSXf-1" target="Zey2sAS4SiDRhGzXNSXf-2">
          <mxGeometry relative="1" as="geometry" />
        </mxCell>
        <mxCell id="Zey2sAS4SiDRhGzXNSXf-1" value="&lt;b&gt;Gamemode&lt;br&gt;&lt;/b&gt;" style="shape=parallelogram;perimeter=parallelogramPerimeter;whiteSpace=wrap;html=1;fixedSize=1;" vertex="1" parent="1">
          <mxGeometry x="10" y="10" width="120" height="60" as="geometry" />
        </mxCell>
        <mxCell id="Zey2sAS4SiDRhGzXNSXf-6" value="" style="edgeStyle=orthogonalEdgeStyle;rounded=0;orthogonalLoop=1;jettySize=auto;html=1;" edge="1" parent="1" source="Zey2sAS4SiDRhGzXNSXf-2" target="Zey2sAS4SiDRhGzXNSXf-3">
          <mxGeometry relative="1" as="geometry" />
        </mxCell>
        <mxCell id="Zey2sAS4SiDRhGzXNSXf-2" value="Start" style="ellipse;whiteSpace=wrap;html=1;fillColor=#d5e8d4;strokeColor=#82b366;" vertex="1" parent="1">
          <mxGeometry x="10" y="110" width="120" height="80" as="geometry" />
        </mxCell>
        <mxCell id="Zey2sAS4SiDRhGzXNSXf-7" value="" style="edgeStyle=orthogonalEdgeStyle;rounded=0;orthogonalLoop=1;jettySize=auto;html=1;" edge="1" parent="1" source="Zey2sAS4SiDRhGzXNSXf-3" target="Zey2sAS4SiDRhGzXNSXf-4">
          <mxGeometry relative="1" as="geometry" />
        </mxCell>
        <mxCell id="Zey2sAS4SiDRhGzXNSXf-3" value="Shuffle the deck" style="rounded=1;whiteSpace=wrap;html=1;" vertex="1" parent="1">
          <mxGeometry x="10" y="230" width="120" height="60" as="geometry" />
        </mxCell>
        <mxCell id="Zey2sAS4SiDRhGzXNSXf-9" value="" style="edgeStyle=orthogonalEdgeStyle;rounded=0;orthogonalLoop=1;jettySize=auto;html=1;" edge="1" parent="1" source="Zey2sAS4SiDRhGzXNSXf-4" target="Zey2sAS4SiDRhGzXNSXf-8">
          <mxGeometry relative="1" as="geometry" />
        </mxCell>
        <mxCell id="Zey2sAS4SiDRhGzXNSXf-4" value="Cut the deck" style="rounded=1;whiteSpace=wrap;html=1;" vertex="1" parent="1">
          <mxGeometry x="10" y="330" width="120" height="60" as="geometry" />
        </mxCell>
        <mxCell id="Zey2sAS4SiDRhGzXNSXf-121" value="&lt;b&gt;Flipped Card: Rank&lt;/b&gt;" style="edgeStyle=orthogonalEdgeStyle;rounded=0;orthogonalLoop=1;jettySize=auto;html=1;" edge="1" parent="1" source="Zey2sAS4SiDRhGzXNSXf-8" target="Zey2sAS4SiDRhGzXNSXf-120">
          <mxGeometry relative="1" as="geometry" />
        </mxCell>
        <mxCell id="Zey2sAS4SiDRhGzXNSXf-8" value="Flip the top card" style="rounded=1;whiteSpace=wrap;html=1;" vertex="1" parent="1">
          <mxGeometry x="10" y="430" width="120" height="60" as="geometry" />
        </mxCell>
        <mxCell id="Zey2sAS4SiDRhGzXNSXf-124" value="" style="edgeStyle=orthogonalEdgeStyle;rounded=0;orthogonalLoop=1;jettySize=auto;html=1;" edge="1" parent="1" source="Zey2sAS4SiDRhGzXNSXf-10" target="Zey2sAS4SiDRhGzXNSXf-123">
          <mxGeometry relative="1" as="geometry" />
        </mxCell>
        <mxCell id="Zey2sAS4SiDRhGzXNSXf-10" value="Set&amp;nbsp;&lt;b&gt;Boardstate: Score&amp;nbsp;&lt;/b&gt;to&amp;nbsp;&lt;b&gt;Result&lt;/b&gt;" style="rounded=1;whiteSpace=wrap;html=1;" vertex="1" parent="1">
          <mxGeometry x="10" y="630" width="120" height="60" as="geometry" />
        </mxCell>
        <mxCell id="Zey2sAS4SiDRhGzXNSXf-17" value="" style="edgeStyle=orthogonalEdgeStyle;rounded=0;orthogonalLoop=1;jettySize=auto;html=1;" edge="1" parent="1" source="Zey2sAS4SiDRhGzXNSXf-14" target="Zey2sAS4SiDRhGzXNSXf-15">
          <mxGeometry relative="1" as="geometry" />
        </mxCell>
        <mxCell id="Zey2sAS4SiDRhGzXNSXf-14" value="Set &lt;b&gt;Guess: Color&lt;/b&gt;&amp;nbsp;to Colin&#39;s guess" style="rounded=1;whiteSpace=wrap;html=1;" vertex="1" parent="1">
          <mxGeometry x="10" y="830" width="120" height="60" as="geometry" />
        </mxCell>
        <mxCell id="Zey2sAS4SiDRhGzXNSXf-76" value="" style="edgeStyle=orthogonalEdgeStyle;rounded=0;orthogonalLoop=1;jettySize=auto;html=1;" edge="1" parent="1" source="Zey2sAS4SiDRhGzXNSXf-15" target="Zey2sAS4SiDRhGzXNSXf-73">
          <mxGeometry relative="1" as="geometry" />
        </mxCell>
        <mxCell id="Zey2sAS4SiDRhGzXNSXf-15" value="Set &lt;b&gt;Guess: Position&amp;nbsp;&lt;/b&gt;to Ruby&#39;s Guess" style="rounded=1;whiteSpace=wrap;html=1;" vertex="1" parent="1">
          <mxGeometry x="10" y="930" width="120" height="60" as="geometry" />
        </mxCell>
        <mxCell id="Zey2sAS4SiDRhGzXNSXf-69" value="Convert Rank to Score" style="swimlane;whiteSpace=wrap;html=1;" vertex="1" parent="1">
          <mxGeometry x="980" y="120" width="350" height="1010" as="geometry" />
        </mxCell>
        <mxCell id="Zey2sAS4SiDRhGzXNSXf-68" value="" style="edgeStyle=orthogonalEdgeStyle;rounded=0;orthogonalLoop=1;jettySize=auto;html=1;" edge="1" parent="Zey2sAS4SiDRhGzXNSXf-69" source="Zey2sAS4SiDRhGzXNSXf-19" target="Zey2sAS4SiDRhGzXNSXf-20">
          <mxGeometry relative="1" as="geometry" />
        </mxCell>
        <mxCell id="Zey2sAS4SiDRhGzXNSXf-67" value="" style="edgeStyle=orthogonalEdgeStyle;rounded=0;orthogonalLoop=1;jettySize=auto;html=1;" edge="1" parent="Zey2sAS4SiDRhGzXNSXf-69" source="Zey2sAS4SiDRhGzXNSXf-20" target="Zey2sAS4SiDRhGzXNSXf-21">
          <mxGeometry relative="1" as="geometry" />
        </mxCell>
        <mxCell id="Zey2sAS4SiDRhGzXNSXf-41" value="Yes" style="edgeStyle=orthogonalEdgeStyle;rounded=0;orthogonalLoop=1;jettySize=auto;html=1;" edge="1" parent="Zey2sAS4SiDRhGzXNSXf-69" source="Zey2sAS4SiDRhGzXNSXf-21" target="Zey2sAS4SiDRhGzXNSXf-26">
          <mxGeometry relative="1" as="geometry" />
        </mxCell>
        <mxCell id="Zey2sAS4SiDRhGzXNSXf-45" value="No" style="edgeStyle=orthogonalEdgeStyle;rounded=0;orthogonalLoop=1;jettySize=auto;html=1;exitX=0.5;exitY=1;exitDx=0;exitDy=0;entryX=0.5;entryY=0;entryDx=0;entryDy=0;" edge="1" parent="Zey2sAS4SiDRhGzXNSXf-69" source="Zey2sAS4SiDRhGzXNSXf-21" target="Zey2sAS4SiDRhGzXNSXf-22">
          <mxGeometry relative="1" as="geometry" />
        </mxCell>
        <mxCell id="Zey2sAS4SiDRhGzXNSXf-42" value="Yes" style="edgeStyle=orthogonalEdgeStyle;rounded=0;orthogonalLoop=1;jettySize=auto;html=1;exitX=1;exitY=0.5;exitDx=0;exitDy=0;entryX=0;entryY=0.5;entryDx=0;entryDy=0;" edge="1" parent="Zey2sAS4SiDRhGzXNSXf-69" source="Zey2sAS4SiDRhGzXNSXf-22" target="Zey2sAS4SiDRhGzXNSXf-39">
          <mxGeometry relative="1" as="geometry" />
        </mxCell>
        <mxCell id="Zey2sAS4SiDRhGzXNSXf-46" value="No" style="edgeStyle=orthogonalEdgeStyle;rounded=0;orthogonalLoop=1;jettySize=auto;html=1;exitX=0.5;exitY=1;exitDx=0;exitDy=0;entryX=0.5;entryY=0;entryDx=0;entryDy=0;" edge="1" parent="Zey2sAS4SiDRhGzXNSXf-69" source="Zey2sAS4SiDRhGzXNSXf-22" target="Zey2sAS4SiDRhGzXNSXf-23">
          <mxGeometry relative="1" as="geometry" />
        </mxCell>
        <mxCell id="Zey2sAS4SiDRhGzXNSXf-43" value="Yes" style="edgeStyle=orthogonalEdgeStyle;rounded=0;orthogonalLoop=1;jettySize=auto;html=1;exitX=1;exitY=0.5;exitDx=0;exitDy=0;entryX=0;entryY=0.5;entryDx=0;entryDy=0;" edge="1" parent="Zey2sAS4SiDRhGzXNSXf-69" source="Zey2sAS4SiDRhGzXNSXf-23" target="Zey2sAS4SiDRhGzXNSXf-38">
          <mxGeometry relative="1" as="geometry" />
        </mxCell>
        <mxCell id="Zey2sAS4SiDRhGzXNSXf-47" value="No" style="edgeStyle=orthogonalEdgeStyle;rounded=0;orthogonalLoop=1;jettySize=auto;html=1;exitX=0.5;exitY=1;exitDx=0;exitDy=0;entryX=0.5;entryY=0;entryDx=0;entryDy=0;" edge="1" parent="Zey2sAS4SiDRhGzXNSXf-69" source="Zey2sAS4SiDRhGzXNSXf-23" target="Zey2sAS4SiDRhGzXNSXf-24">
          <mxGeometry relative="1" as="geometry" />
        </mxCell>
        <mxCell id="Zey2sAS4SiDRhGzXNSXf-44" value="Yes" style="edgeStyle=orthogonalEdgeStyle;rounded=0;orthogonalLoop=1;jettySize=auto;html=1;exitX=1;exitY=0.5;exitDx=0;exitDy=0;entryX=0;entryY=0.5;entryDx=0;entryDy=0;" edge="1" parent="Zey2sAS4SiDRhGzXNSXf-69" source="Zey2sAS4SiDRhGzXNSXf-24" target="Zey2sAS4SiDRhGzXNSXf-37">
          <mxGeometry relative="1" as="geometry" />
        </mxCell>
        <mxCell id="Zey2sAS4SiDRhGzXNSXf-53" value="" style="edgeStyle=orthogonalEdgeStyle;rounded=0;orthogonalLoop=1;jettySize=auto;html=1;" edge="1" parent="Zey2sAS4SiDRhGzXNSXf-69" source="Zey2sAS4SiDRhGzXNSXf-26" target="Zey2sAS4SiDRhGzXNSXf-34">
          <mxGeometry relative="1" as="geometry" />
        </mxCell>
        <mxCell id="Zey2sAS4SiDRhGzXNSXf-66" style="edgeStyle=orthogonalEdgeStyle;rounded=0;orthogonalLoop=1;jettySize=auto;html=1;exitX=0.5;exitY=1;exitDx=0;exitDy=0;entryX=1;entryY=0.5;entryDx=0;entryDy=0;" edge="1" parent="Zey2sAS4SiDRhGzXNSXf-69" source="Zey2sAS4SiDRhGzXNSXf-31" target="Zey2sAS4SiDRhGzXNSXf-63">
          <mxGeometry relative="1" as="geometry" />
        </mxCell>
        <mxCell id="Zey2sAS4SiDRhGzXNSXf-59" value="" style="edgeStyle=orthogonalEdgeStyle;rounded=0;orthogonalLoop=1;jettySize=auto;html=1;" edge="1" parent="Zey2sAS4SiDRhGzXNSXf-69" source="Zey2sAS4SiDRhGzXNSXf-32" target="Zey2sAS4SiDRhGzXNSXf-31">
          <mxGeometry relative="1" as="geometry" />
        </mxCell>
        <mxCell id="Zey2sAS4SiDRhGzXNSXf-58" value="" style="edgeStyle=orthogonalEdgeStyle;rounded=0;orthogonalLoop=1;jettySize=auto;html=1;" edge="1" parent="Zey2sAS4SiDRhGzXNSXf-69" source="Zey2sAS4SiDRhGzXNSXf-33" target="Zey2sAS4SiDRhGzXNSXf-32">
          <mxGeometry relative="1" as="geometry" />
        </mxCell>
        <mxCell id="Zey2sAS4SiDRhGzXNSXf-57" value="" style="edgeStyle=orthogonalEdgeStyle;rounded=0;orthogonalLoop=1;jettySize=auto;html=1;" edge="1" parent="Zey2sAS4SiDRhGzXNSXf-69" source="Zey2sAS4SiDRhGzXNSXf-34" target="Zey2sAS4SiDRhGzXNSXf-33">
          <mxGeometry relative="1" as="geometry" />
        </mxCell>
        <mxCell id="Zey2sAS4SiDRhGzXNSXf-56" value="" style="edgeStyle=orthogonalEdgeStyle;rounded=0;orthogonalLoop=1;jettySize=auto;html=1;" edge="1" parent="Zey2sAS4SiDRhGzXNSXf-69" source="Zey2sAS4SiDRhGzXNSXf-37" target="Zey2sAS4SiDRhGzXNSXf-31">
          <mxGeometry relative="1" as="geometry" />
        </mxCell>
        <mxCell id="Zey2sAS4SiDRhGzXNSXf-55" value="" style="edgeStyle=orthogonalEdgeStyle;rounded=0;orthogonalLoop=1;jettySize=auto;html=1;" edge="1" parent="Zey2sAS4SiDRhGzXNSXf-69" source="Zey2sAS4SiDRhGzXNSXf-38" target="Zey2sAS4SiDRhGzXNSXf-32">
          <mxGeometry relative="1" as="geometry" />
        </mxCell>
        <mxCell id="Zey2sAS4SiDRhGzXNSXf-54" value="" style="edgeStyle=orthogonalEdgeStyle;rounded=0;orthogonalLoop=1;jettySize=auto;html=1;" edge="1" parent="Zey2sAS4SiDRhGzXNSXf-69" source="Zey2sAS4SiDRhGzXNSXf-39" target="Zey2sAS4SiDRhGzXNSXf-33">
          <mxGeometry relative="1" as="geometry" />
        </mxCell>
        <mxCell id="Zey2sAS4SiDRhGzXNSXf-51" value="" style="edgeStyle=orthogonalEdgeStyle;rounded=0;orthogonalLoop=1;jettySize=auto;html=1;" edge="1" parent="Zey2sAS4SiDRhGzXNSXf-69" source="Zey2sAS4SiDRhGzXNSXf-49" target="Zey2sAS4SiDRhGzXNSXf-50">
          <mxGeometry relative="1" as="geometry" />
        </mxCell>
        <mxCell id="Zey2sAS4SiDRhGzXNSXf-19" value="Rank" style="shape=parallelogram;perimeter=parallelogramPerimeter;whiteSpace=wrap;html=1;fixedSize=1;fontStyle=1" vertex="1" parent="Zey2sAS4SiDRhGzXNSXf-69">
          <mxGeometry x="10" y="30" width="120" height="60" as="geometry" />
        </mxCell>
        <mxCell id="Zey2sAS4SiDRhGzXNSXf-20" value="Start" style="ellipse;whiteSpace=wrap;html=1;fillColor=#d5e8d4;strokeColor=#82b366;" vertex="1" parent="Zey2sAS4SiDRhGzXNSXf-69">
          <mxGeometry x="10" y="120" width="120" height="80" as="geometry" />
        </mxCell>
        <mxCell id="Zey2sAS4SiDRhGzXNSXf-21" value="is &lt;b&gt;Rank A?&lt;/b&gt;" style="rhombus;whiteSpace=wrap;html=1;" vertex="1" parent="Zey2sAS4SiDRhGzXNSXf-69">
          <mxGeometry x="30" y="230" width="80" height="80" as="geometry" />
        </mxCell>
        <mxCell id="Zey2sAS4SiDRhGzXNSXf-22" value="&lt;span style=&quot;color: rgb(0, 0, 0); font-family: Helvetica; font-size: 12px; font-style: normal; font-variant-ligatures: normal; font-variant-caps: normal; font-weight: 400; letter-spacing: normal; orphans: 2; text-align: center; text-indent: 0px; text-transform: none; widows: 2; word-spacing: 0px; -webkit-text-stroke-width: 0px; white-space: normal; background-color: rgb(251, 251, 251); text-decoration-thickness: initial; text-decoration-style: initial; text-decoration-color: initial; display: inline !important; float: none;&quot;&gt;is&lt;span&gt;&amp;nbsp;&lt;/span&gt;&lt;/span&gt;&lt;b style=&quot;forced-color-adjust: none; color: rgb(0, 0, 0); font-family: Helvetica; font-size: 12px; font-style: normal; font-variant-ligatures: normal; font-variant-caps: normal; letter-spacing: normal; orphans: 2; text-align: center; text-indent: 0px; text-transform: none; widows: 2; word-spacing: 0px; -webkit-text-stroke-width: 0px; white-space: normal; background-color: rgb(251, 251, 251); text-decoration-thickness: initial; text-decoration-style: initial; text-decoration-color: initial;&quot;&gt;Rank K?&lt;/b&gt;" style="rhombus;whiteSpace=wrap;html=1;" vertex="1" parent="Zey2sAS4SiDRhGzXNSXf-69">
          <mxGeometry x="30" y="340" width="80" height="80" as="geometry" />
        </mxCell>
        <mxCell id="Zey2sAS4SiDRhGzXNSXf-23" value="&lt;div&gt;&lt;span style=&quot;background-color: initial;&quot;&gt;is&amp;nbsp;&lt;/span&gt;&lt;b style=&quot;background-color: initial;&quot;&gt;Rank Q?&lt;/b&gt;&lt;br&gt;&lt;/div&gt;" style="rhombus;whiteSpace=wrap;html=1;" vertex="1" parent="Zey2sAS4SiDRhGzXNSXf-69">
          <mxGeometry x="30" y="450" width="80" height="80" as="geometry" />
        </mxCell>
        <mxCell id="Zey2sAS4SiDRhGzXNSXf-78" value="No" style="edgeStyle=orthogonalEdgeStyle;rounded=0;orthogonalLoop=1;jettySize=auto;html=1;" edge="1" parent="Zey2sAS4SiDRhGzXNSXf-69" source="Zey2sAS4SiDRhGzXNSXf-24" target="Zey2sAS4SiDRhGzXNSXf-40">
          <mxGeometry relative="1" as="geometry" />
        </mxCell>
        <mxCell id="Zey2sAS4SiDRhGzXNSXf-24" value="&lt;span style=&quot;color: rgb(0, 0, 0); font-family: Helvetica; font-size: 12px; font-style: normal; font-variant-ligatures: normal; font-variant-caps: normal; font-weight: 400; letter-spacing: normal; orphans: 2; text-align: center; text-indent: 0px; text-transform: none; widows: 2; word-spacing: 0px; -webkit-text-stroke-width: 0px; white-space: normal; background-color: rgb(251, 251, 251); text-decoration-thickness: initial; text-decoration-style: initial; text-decoration-color: initial; display: inline !important; float: none;&quot;&gt;is&lt;span&gt;&amp;nbsp;&lt;/span&gt;&lt;/span&gt;&lt;b style=&quot;forced-color-adjust: none; color: rgb(0, 0, 0); font-family: Helvetica; font-size: 12px; font-style: normal; font-variant-ligatures: normal; font-variant-caps: normal; letter-spacing: normal; orphans: 2; text-align: center; text-indent: 0px; text-transform: none; widows: 2; word-spacing: 0px; -webkit-text-stroke-width: 0px; white-space: normal; background-color: rgb(251, 251, 251); text-decoration-thickness: initial; text-decoration-style: initial; text-decoration-color: initial;&quot;&gt;Rank J?&lt;/b&gt;" style="rhombus;whiteSpace=wrap;html=1;" vertex="1" parent="Zey2sAS4SiDRhGzXNSXf-69">
          <mxGeometry x="30" y="560" width="80" height="80" as="geometry" />
        </mxCell>
        <mxCell id="Zey2sAS4SiDRhGzXNSXf-26" value="Set &lt;b&gt;Score&lt;/b&gt; to 14" style="rounded=1;whiteSpace=wrap;html=1;" vertex="1" parent="Zey2sAS4SiDRhGzXNSXf-69">
          <mxGeometry x="140" y="240" width="120" height="60" as="geometry" />
        </mxCell>
        <mxCell id="Zey2sAS4SiDRhGzXNSXf-31" value="" style="ellipse;whiteSpace=wrap;html=1;aspect=fixed;" vertex="1" parent="Zey2sAS4SiDRhGzXNSXf-69">
          <mxGeometry x="300" y="580" width="40" height="40" as="geometry" />
        </mxCell>
        <mxCell id="Zey2sAS4SiDRhGzXNSXf-32" value="" style="ellipse;whiteSpace=wrap;html=1;aspect=fixed;" vertex="1" parent="Zey2sAS4SiDRhGzXNSXf-69">
          <mxGeometry x="300" y="470" width="40" height="40" as="geometry" />
        </mxCell>
        <mxCell id="Zey2sAS4SiDRhGzXNSXf-33" value="" style="ellipse;whiteSpace=wrap;html=1;aspect=fixed;" vertex="1" parent="Zey2sAS4SiDRhGzXNSXf-69">
          <mxGeometry x="300" y="360" width="40" height="40" as="geometry" />
        </mxCell>
        <mxCell id="Zey2sAS4SiDRhGzXNSXf-34" value="" style="ellipse;whiteSpace=wrap;html=1;aspect=fixed;" vertex="1" parent="Zey2sAS4SiDRhGzXNSXf-69">
          <mxGeometry x="300" y="250" width="40" height="40" as="geometry" />
        </mxCell>
        <mxCell id="Zey2sAS4SiDRhGzXNSXf-37" value="Set &lt;b&gt;Score&lt;/b&gt; to 11" style="rounded=1;whiteSpace=wrap;html=1;" vertex="1" parent="Zey2sAS4SiDRhGzXNSXf-69">
          <mxGeometry x="140" y="570" width="120" height="60" as="geometry" />
        </mxCell>
        <mxCell id="Zey2sAS4SiDRhGzXNSXf-38" value="Set &lt;b&gt;Score&lt;/b&gt; to 12" style="rounded=1;whiteSpace=wrap;html=1;" vertex="1" parent="Zey2sAS4SiDRhGzXNSXf-69">
          <mxGeometry x="140" y="460" width="120" height="60" as="geometry" />
        </mxCell>
        <mxCell id="Zey2sAS4SiDRhGzXNSXf-39" value="Set &lt;b&gt;Score&lt;/b&gt; to 13" style="rounded=1;whiteSpace=wrap;html=1;" vertex="1" parent="Zey2sAS4SiDRhGzXNSXf-69">
          <mxGeometry x="140" y="350" width="120" height="60" as="geometry" />
        </mxCell>
        <mxCell id="Zey2sAS4SiDRhGzXNSXf-79" value="" style="edgeStyle=orthogonalEdgeStyle;rounded=0;orthogonalLoop=1;jettySize=auto;html=1;" edge="1" parent="Zey2sAS4SiDRhGzXNSXf-69" source="Zey2sAS4SiDRhGzXNSXf-40" target="Zey2sAS4SiDRhGzXNSXf-63">
          <mxGeometry relative="1" as="geometry" />
        </mxCell>
        <mxCell id="Zey2sAS4SiDRhGzXNSXf-40" value="Set &lt;b&gt;Score&lt;/b&gt; to &lt;b&gt;Rank&lt;/b&gt;" style="rounded=1;whiteSpace=wrap;html=1;" vertex="1" parent="Zey2sAS4SiDRhGzXNSXf-69">
          <mxGeometry x="10" y="670" width="120" height="60" as="geometry" />
        </mxCell>
        <mxCell id="Zey2sAS4SiDRhGzXNSXf-49" value="End" style="ellipse;whiteSpace=wrap;html=1;fillColor=#f8cecc;strokeColor=#b85450;" vertex="1" parent="Zey2sAS4SiDRhGzXNSXf-69">
          <mxGeometry x="10" y="830" width="120" height="80" as="geometry" />
        </mxCell>
        <mxCell id="Zey2sAS4SiDRhGzXNSXf-50" value="Score" style="shape=parallelogram;perimeter=parallelogramPerimeter;whiteSpace=wrap;html=1;fixedSize=1;" vertex="1" parent="Zey2sAS4SiDRhGzXNSXf-69">
          <mxGeometry x="10" y="940" width="120" height="60" as="geometry" />
        </mxCell>
        <mxCell id="Zey2sAS4SiDRhGzXNSXf-80" value="" style="edgeStyle=orthogonalEdgeStyle;rounded=0;orthogonalLoop=1;jettySize=auto;html=1;" edge="1" parent="Zey2sAS4SiDRhGzXNSXf-69" source="Zey2sAS4SiDRhGzXNSXf-63" target="Zey2sAS4SiDRhGzXNSXf-49">
          <mxGeometry relative="1" as="geometry" />
        </mxCell>
        <mxCell id="Zey2sAS4SiDRhGzXNSXf-63" value="" style="ellipse;whiteSpace=wrap;html=1;aspect=fixed;" vertex="1" parent="Zey2sAS4SiDRhGzXNSXf-69">
          <mxGeometry x="50" y="760" width="40" height="40" as="geometry" />
        </mxCell>
        <mxCell id="Zey2sAS4SiDRhGzXNSXf-92" style="edgeStyle=orthogonalEdgeStyle;rounded=0;orthogonalLoop=1;jettySize=auto;html=1;entryX=0.5;entryY=0;entryDx=0;entryDy=0;" edge="1" parent="1" source="Zey2sAS4SiDRhGzXNSXf-73" target="Zey2sAS4SiDRhGzXNSXf-89">
          <mxGeometry relative="1" as="geometry" />
        </mxCell>
        <mxCell id="Zey2sAS4SiDRhGzXNSXf-73" value="Flip the next card" style="rounded=1;whiteSpace=wrap;html=1;" vertex="1" parent="1">
          <mxGeometry x="10" y="1030" width="120" height="60" as="geometry" />
        </mxCell>
        <mxCell id="Zey2sAS4SiDRhGzXNSXf-83" value="No" style="edgeStyle=orthogonalEdgeStyle;rounded=0;orthogonalLoop=1;jettySize=auto;html=1;exitX=0.5;exitY=1;exitDx=0;exitDy=0;" edge="1" parent="1" source="Zey2sAS4SiDRhGzXNSXf-75" target="Zey2sAS4SiDRhGzXNSXf-82">
          <mxGeometry relative="1" as="geometry" />
        </mxCell>
        <mxCell id="Zey2sAS4SiDRhGzXNSXf-84" value="Yes" style="edgeStyle=orthogonalEdgeStyle;rounded=0;orthogonalLoop=1;jettySize=auto;html=1;exitX=1;exitY=0.5;exitDx=0;exitDy=0;entryX=0;entryY=0.5;entryDx=0;entryDy=0;" edge="1" parent="1" source="Zey2sAS4SiDRhGzXNSXf-75" target="Zey2sAS4SiDRhGzXNSXf-81">
          <mxGeometry relative="1" as="geometry" />
        </mxCell>
        <mxCell id="Zey2sAS4SiDRhGzXNSXf-75" value="Is &lt;b&gt;Flipped Card:&lt;br&gt;Color&lt;/b&gt; the same as&lt;br&gt;&lt;b&gt;Guess: Color&lt;/b&gt;?" style="rhombus;whiteSpace=wrap;html=1;" vertex="1" parent="1">
          <mxGeometry x="680" y="1230" width="150" height="100" as="geometry" />
        </mxCell>
        <mxCell id="Zey2sAS4SiDRhGzXNSXf-87" style="edgeStyle=orthogonalEdgeStyle;rounded=0;orthogonalLoop=1;jettySize=auto;html=1;exitX=0.5;exitY=1;exitDx=0;exitDy=0;entryX=1;entryY=0.5;entryDx=0;entryDy=0;" edge="1" parent="1" source="Zey2sAS4SiDRhGzXNSXf-81" target="Zey2sAS4SiDRhGzXNSXf-85">
          <mxGeometry relative="1" as="geometry" />
        </mxCell>
        <mxCell id="Zey2sAS4SiDRhGzXNSXf-81" value="Set &lt;b&gt;Guess: Color: Correct&lt;/b&gt; to 1" style="rounded=1;whiteSpace=wrap;html=1;" vertex="1" parent="1">
          <mxGeometry x="870" y="1250" width="120" height="60" as="geometry" />
        </mxCell>
        <mxCell id="Zey2sAS4SiDRhGzXNSXf-86" value="" style="edgeStyle=orthogonalEdgeStyle;rounded=0;orthogonalLoop=1;jettySize=auto;html=1;" edge="1" parent="1" source="Zey2sAS4SiDRhGzXNSXf-82" target="Zey2sAS4SiDRhGzXNSXf-85">
          <mxGeometry relative="1" as="geometry" />
        </mxCell>
        <mxCell id="Zey2sAS4SiDRhGzXNSXf-82" value="Set &lt;b&gt;Guess: Color: Correct&lt;/b&gt; to 0" style="rounded=1;whiteSpace=wrap;html=1;" vertex="1" parent="1">
          <mxGeometry x="695" y="1370" width="120" height="60" as="geometry" />
        </mxCell>
        <mxCell id="Zey2sAS4SiDRhGzXNSXf-162" value="" style="edgeStyle=orthogonalEdgeStyle;rounded=0;orthogonalLoop=1;jettySize=auto;html=1;" edge="1" parent="1" source="Zey2sAS4SiDRhGzXNSXf-85" target="Zey2sAS4SiDRhGzXNSXf-161">
          <mxGeometry relative="1" as="geometry" />
        </mxCell>
        <mxCell id="Zey2sAS4SiDRhGzXNSXf-85" value="" style="ellipse;whiteSpace=wrap;html=1;aspect=fixed;" vertex="1" parent="1">
          <mxGeometry x="735" y="1460" width="40" height="40" as="geometry" />
        </mxCell>
        <mxCell id="Zey2sAS4SiDRhGzXNSXf-93" value="" style="edgeStyle=orthogonalEdgeStyle;rounded=0;orthogonalLoop=1;jettySize=auto;html=1;" edge="1" parent="1" source="Zey2sAS4SiDRhGzXNSXf-89" target="Zey2sAS4SiDRhGzXNSXf-91">
          <mxGeometry relative="1" as="geometry" />
        </mxCell>
        <mxCell id="Zey2sAS4SiDRhGzXNSXf-110" value="No" style="edgeStyle=orthogonalEdgeStyle;rounded=0;orthogonalLoop=1;jettySize=auto;html=1;" edge="1" parent="1" source="Zey2sAS4SiDRhGzXNSXf-89" target="Zey2sAS4SiDRhGzXNSXf-106">
          <mxGeometry relative="1" as="geometry" />
        </mxCell>
        <mxCell id="Zey2sAS4SiDRhGzXNSXf-111" value="Yes" style="edgeStyle=orthogonalEdgeStyle;rounded=0;orthogonalLoop=1;jettySize=auto;html=1;" edge="1" parent="1" source="Zey2sAS4SiDRhGzXNSXf-89" target="Zey2sAS4SiDRhGzXNSXf-91">
          <mxGeometry relative="1" as="geometry" />
        </mxCell>
        <mxCell id="Zey2sAS4SiDRhGzXNSXf-89" value="Is &lt;b&gt;Flipped Card: &lt;br&gt;Rank&lt;/b&gt; the same as &lt;b&gt;Boardstate: Rank&lt;/b&gt;?" style="rhombus;whiteSpace=wrap;html=1;" vertex="1" parent="1">
          <mxGeometry x="190" y="95" width="170" height="110" as="geometry" />
        </mxCell>
        <mxCell id="Zey2sAS4SiDRhGzXNSXf-103" value="" style="edgeStyle=orthogonalEdgeStyle;rounded=0;orthogonalLoop=1;jettySize=auto;html=1;" edge="1" parent="1" source="Zey2sAS4SiDRhGzXNSXf-91" target="Zey2sAS4SiDRhGzXNSXf-95">
          <mxGeometry relative="1" as="geometry" />
        </mxCell>
        <mxCell id="Zey2sAS4SiDRhGzXNSXf-91" value="Flip the next card" style="rounded=1;whiteSpace=wrap;html=1;" vertex="1" parent="1">
          <mxGeometry x="400" y="120" width="120" height="60" as="geometry" />
        </mxCell>
        <mxCell id="Zey2sAS4SiDRhGzXNSXf-94" value="Yes" style="edgeStyle=orthogonalEdgeStyle;rounded=0;orthogonalLoop=1;jettySize=auto;html=1;" edge="1" parent="1" source="Zey2sAS4SiDRhGzXNSXf-95" target="Zey2sAS4SiDRhGzXNSXf-96">
          <mxGeometry relative="1" as="geometry" />
        </mxCell>
        <mxCell id="Zey2sAS4SiDRhGzXNSXf-112" value="No" style="edgeStyle=orthogonalEdgeStyle;rounded=0;orthogonalLoop=1;jettySize=auto;html=1;entryX=1;entryY=0.5;entryDx=0;entryDy=0;exitX=0.5;exitY=1;exitDx=0;exitDy=0;" edge="1" parent="1" source="Zey2sAS4SiDRhGzXNSXf-95" target="Zey2sAS4SiDRhGzXNSXf-107">
          <mxGeometry x="-0.8597" relative="1" as="geometry">
            <mxPoint as="offset" />
          </mxGeometry>
        </mxCell>
        <mxCell id="Zey2sAS4SiDRhGzXNSXf-95" value="Is &lt;b&gt;Flipped Card: &lt;br&gt;Rank&lt;/b&gt; the same as &lt;b&gt;Boardstate: Rank&lt;/b&gt;?" style="rhombus;whiteSpace=wrap;html=1;" vertex="1" parent="1">
          <mxGeometry x="375" y="220" width="170" height="110" as="geometry" />
        </mxCell>
        <mxCell id="Zey2sAS4SiDRhGzXNSXf-104" value="" style="edgeStyle=orthogonalEdgeStyle;rounded=0;orthogonalLoop=1;jettySize=auto;html=1;" edge="1" parent="1" source="Zey2sAS4SiDRhGzXNSXf-96" target="Zey2sAS4SiDRhGzXNSXf-98">
          <mxGeometry relative="1" as="geometry" />
        </mxCell>
        <mxCell id="Zey2sAS4SiDRhGzXNSXf-96" value="Flip the next card" style="rounded=1;whiteSpace=wrap;html=1;" vertex="1" parent="1">
          <mxGeometry x="585" y="245" width="120" height="60" as="geometry" />
        </mxCell>
        <mxCell id="Zey2sAS4SiDRhGzXNSXf-97" value="Yes" style="edgeStyle=orthogonalEdgeStyle;rounded=0;orthogonalLoop=1;jettySize=auto;html=1;" edge="1" parent="1" source="Zey2sAS4SiDRhGzXNSXf-98" target="Zey2sAS4SiDRhGzXNSXf-99">
          <mxGeometry relative="1" as="geometry" />
        </mxCell>
        <mxCell id="Zey2sAS4SiDRhGzXNSXf-113" value="No" style="edgeStyle=orthogonalEdgeStyle;rounded=0;orthogonalLoop=1;jettySize=auto;html=1;exitX=0.5;exitY=1;exitDx=0;exitDy=0;entryX=1;entryY=0.5;entryDx=0;entryDy=0;" edge="1" parent="1" source="Zey2sAS4SiDRhGzXNSXf-98" target="Zey2sAS4SiDRhGzXNSXf-108">
          <mxGeometry relative="1" as="geometry" />
        </mxCell>
        <mxCell id="Zey2sAS4SiDRhGzXNSXf-98" value="Is &lt;b&gt;Flipped Card: &lt;br&gt;Rank&lt;/b&gt; the same as &lt;b&gt;Boardstate: Rank&lt;/b&gt;?" style="rhombus;whiteSpace=wrap;html=1;" vertex="1" parent="1">
          <mxGeometry x="560" y="357.5" width="170" height="110" as="geometry" />
        </mxCell>
        <mxCell id="Zey2sAS4SiDRhGzXNSXf-128" style="edgeStyle=orthogonalEdgeStyle;rounded=0;orthogonalLoop=1;jettySize=auto;html=1;exitX=0.5;exitY=1;exitDx=0;exitDy=0;entryX=1;entryY=0.5;entryDx=0;entryDy=0;" edge="1" parent="1" source="Zey2sAS4SiDRhGzXNSXf-99" target="Zey2sAS4SiDRhGzXNSXf-109">
          <mxGeometry relative="1" as="geometry" />
        </mxCell>
        <mxCell id="Zey2sAS4SiDRhGzXNSXf-99" value="Flip the next card" style="rounded=1;whiteSpace=wrap;html=1;" vertex="1" parent="1">
          <mxGeometry x="770" y="382.5" width="120" height="60" as="geometry" />
        </mxCell>
        <mxCell id="Zey2sAS4SiDRhGzXNSXf-114" style="edgeStyle=orthogonalEdgeStyle;rounded=0;orthogonalLoop=1;jettySize=auto;html=1;exitX=0.5;exitY=1;exitDx=0;exitDy=0;entryX=0.5;entryY=0;entryDx=0;entryDy=0;" edge="1" parent="1" source="Zey2sAS4SiDRhGzXNSXf-106" target="Zey2sAS4SiDRhGzXNSXf-107">
          <mxGeometry relative="1" as="geometry" />
        </mxCell>
        <mxCell id="Zey2sAS4SiDRhGzXNSXf-106" value="" style="ellipse;whiteSpace=wrap;html=1;aspect=fixed;" vertex="1" parent="1">
          <mxGeometry x="255" y="255" width="40" height="40" as="geometry" />
        </mxCell>
        <mxCell id="Zey2sAS4SiDRhGzXNSXf-115" style="edgeStyle=orthogonalEdgeStyle;rounded=0;orthogonalLoop=1;jettySize=auto;html=1;exitX=0.5;exitY=1;exitDx=0;exitDy=0;entryX=0.5;entryY=0;entryDx=0;entryDy=0;" edge="1" parent="1" source="Zey2sAS4SiDRhGzXNSXf-107" target="Zey2sAS4SiDRhGzXNSXf-108">
          <mxGeometry relative="1" as="geometry" />
        </mxCell>
        <mxCell id="Zey2sAS4SiDRhGzXNSXf-107" value="" style="ellipse;whiteSpace=wrap;html=1;aspect=fixed;" vertex="1" parent="1">
          <mxGeometry x="255" y="392.5" width="40" height="40" as="geometry" />
        </mxCell>
        <mxCell id="Zey2sAS4SiDRhGzXNSXf-127" style="edgeStyle=orthogonalEdgeStyle;rounded=0;orthogonalLoop=1;jettySize=auto;html=1;exitX=0.5;exitY=1;exitDx=0;exitDy=0;entryX=0.5;entryY=0;entryDx=0;entryDy=0;" edge="1" parent="1" source="Zey2sAS4SiDRhGzXNSXf-108" target="Zey2sAS4SiDRhGzXNSXf-109">
          <mxGeometry relative="1" as="geometry">
            <mxPoint x="274.8275862068965" y="630" as="targetPoint" />
          </mxGeometry>
        </mxCell>
        <mxCell id="Zey2sAS4SiDRhGzXNSXf-108" value="" style="ellipse;whiteSpace=wrap;html=1;aspect=fixed;" vertex="1" parent="1">
          <mxGeometry x="255" y="510" width="40" height="40" as="geometry" />
        </mxCell>
        <mxCell id="Zey2sAS4SiDRhGzXNSXf-129" value="Flipped Card: Rank" style="edgeStyle=orthogonalEdgeStyle;rounded=0;orthogonalLoop=1;jettySize=auto;html=1;exitX=0.5;exitY=1;exitDx=0;exitDy=0;entryX=0.5;entryY=0;entryDx=0;entryDy=0;fontStyle=1" edge="1" parent="1" source="Zey2sAS4SiDRhGzXNSXf-109" target="Zey2sAS4SiDRhGzXNSXf-126">
          <mxGeometry relative="1" as="geometry" />
        </mxCell>
        <mxCell id="Zey2sAS4SiDRhGzXNSXf-109" value="" style="ellipse;whiteSpace=wrap;html=1;aspect=fixed;" vertex="1" parent="1">
          <mxGeometry x="255" y="620" width="40" height="40" as="geometry" />
        </mxCell>
        <mxCell id="Zey2sAS4SiDRhGzXNSXf-122" value="Result" style="edgeStyle=orthogonalEdgeStyle;rounded=0;orthogonalLoop=1;jettySize=auto;html=1;" edge="1" parent="1" source="Zey2sAS4SiDRhGzXNSXf-120" target="Zey2sAS4SiDRhGzXNSXf-10">
          <mxGeometry relative="1" as="geometry" />
        </mxCell>
        <mxCell id="Zey2sAS4SiDRhGzXNSXf-120" value="Convert Rank to Score" style="shape=process;whiteSpace=wrap;html=1;backgroundOutline=1;" vertex="1" parent="1">
          <mxGeometry x="10" y="530" width="120" height="60" as="geometry" />
        </mxCell>
        <mxCell id="Zey2sAS4SiDRhGzXNSXf-125" value="" style="edgeStyle=orthogonalEdgeStyle;rounded=0;orthogonalLoop=1;jettySize=auto;html=1;" edge="1" parent="1" source="Zey2sAS4SiDRhGzXNSXf-123" target="Zey2sAS4SiDRhGzXNSXf-14">
          <mxGeometry relative="1" as="geometry" />
        </mxCell>
        <mxCell id="Zey2sAS4SiDRhGzXNSXf-123" value="Set &lt;b&gt;Boardstate: Color&lt;/b&gt; to &lt;b&gt;Flipped Card: Color&lt;/b&gt;" style="rounded=1;whiteSpace=wrap;html=1;" vertex="1" parent="1">
          <mxGeometry x="10" y="730" width="120" height="60" as="geometry" />
        </mxCell>
        <mxCell id="Zey2sAS4SiDRhGzXNSXf-131" value="Result" style="edgeStyle=orthogonalEdgeStyle;rounded=0;orthogonalLoop=1;jettySize=auto;html=1;exitX=0.5;exitY=1;exitDx=0;exitDy=0;entryX=0.5;entryY=0;entryDx=0;entryDy=0;" edge="1" parent="1" source="Zey2sAS4SiDRhGzXNSXf-126" target="Zey2sAS4SiDRhGzXNSXf-130">
          <mxGeometry relative="1" as="geometry" />
        </mxCell>
        <mxCell id="Zey2sAS4SiDRhGzXNSXf-126" value="Convert Rank to Score" style="shape=process;whiteSpace=wrap;html=1;backgroundOutline=1;" vertex="1" parent="1">
          <mxGeometry x="215" y="700" width="120" height="60" as="geometry" />
        </mxCell>
        <mxCell id="Zey2sAS4SiDRhGzXNSXf-133" style="edgeStyle=orthogonalEdgeStyle;rounded=0;orthogonalLoop=1;jettySize=auto;html=1;exitX=0.5;exitY=1;exitDx=0;exitDy=0;entryX=0.5;entryY=0;entryDx=0;entryDy=0;" edge="1" parent="1" source="Zey2sAS4SiDRhGzXNSXf-130" target="Zey2sAS4SiDRhGzXNSXf-132">
          <mxGeometry relative="1" as="geometry" />
        </mxCell>
        <mxCell id="Zey2sAS4SiDRhGzXNSXf-130" value="Set &lt;b&gt;Flipped Card: Score&lt;/b&gt; to &lt;b&gt;Result&lt;/b&gt;" style="rounded=1;whiteSpace=wrap;html=1;" vertex="1" parent="1">
          <mxGeometry x="215" y="800" width="120" height="60" as="geometry" />
        </mxCell>
        <mxCell id="Zey2sAS4SiDRhGzXNSXf-142" value="Yes" style="edgeStyle=orthogonalEdgeStyle;rounded=0;orthogonalLoop=1;jettySize=auto;html=1;" edge="1" parent="1" source="Zey2sAS4SiDRhGzXNSXf-132" target="Zey2sAS4SiDRhGzXNSXf-134">
          <mxGeometry relative="1" as="geometry" />
        </mxCell>
        <mxCell id="Zey2sAS4SiDRhGzXNSXf-143" value="No" style="edgeStyle=orthogonalEdgeStyle;rounded=0;orthogonalLoop=1;jettySize=auto;html=1;" edge="1" parent="1" source="Zey2sAS4SiDRhGzXNSXf-132" target="Zey2sAS4SiDRhGzXNSXf-135">
          <mxGeometry relative="1" as="geometry" />
        </mxCell>
        <mxCell id="Zey2sAS4SiDRhGzXNSXf-132" value="&lt;br&gt;Is &lt;b&gt;Boardstate:&lt;br&gt;Score&lt;/b&gt;&amp;nbsp;Higher than &lt;b&gt;Flipped Card:&lt;br&gt;Score&lt;/b&gt;?" style="rhombus;whiteSpace=wrap;html=1;" vertex="1" parent="1">
          <mxGeometry x="212.5" y="902.5" width="125" height="115" as="geometry" />
        </mxCell>
        <mxCell id="Zey2sAS4SiDRhGzXNSXf-140" value="No" style="edgeStyle=orthogonalEdgeStyle;rounded=0;orthogonalLoop=1;jettySize=auto;html=1;exitX=0.5;exitY=1;exitDx=0;exitDy=0;" edge="1" parent="1" source="Zey2sAS4SiDRhGzXNSXf-134" target="Zey2sAS4SiDRhGzXNSXf-139">
          <mxGeometry x="-0.8857" y="10" relative="1" as="geometry">
            <Array as="points">
              <mxPoint x="440" y="1070" />
            </Array>
            <mxPoint as="offset" />
          </mxGeometry>
        </mxCell>
        <mxCell id="Zey2sAS4SiDRhGzXNSXf-141" value="Yes" style="edgeStyle=orthogonalEdgeStyle;rounded=0;orthogonalLoop=1;jettySize=auto;html=1;" edge="1" parent="1" source="Zey2sAS4SiDRhGzXNSXf-134" target="Zey2sAS4SiDRhGzXNSXf-137">
          <mxGeometry relative="1" as="geometry" />
        </mxCell>
        <mxCell id="Zey2sAS4SiDRhGzXNSXf-134" value="Is &lt;b&gt;Guess:&lt;br&gt;Position&lt;br&gt;&lt;/b&gt;Higher?" style="rhombus;whiteSpace=wrap;html=1;" vertex="1" parent="1">
          <mxGeometry x="390" y="910" width="100" height="100" as="geometry" />
        </mxCell>
        <mxCell id="Zey2sAS4SiDRhGzXNSXf-146" value="No" style="edgeStyle=orthogonalEdgeStyle;rounded=0;orthogonalLoop=1;jettySize=auto;html=1;" edge="1" parent="1" source="Zey2sAS4SiDRhGzXNSXf-135" target="Zey2sAS4SiDRhGzXNSXf-145">
          <mxGeometry relative="1" as="geometry" />
        </mxCell>
        <mxCell id="Zey2sAS4SiDRhGzXNSXf-147" value="Yes" style="edgeStyle=orthogonalEdgeStyle;rounded=0;orthogonalLoop=1;jettySize=auto;html=1;exitX=1;exitY=0.5;exitDx=0;exitDy=0;entryX=0;entryY=0.5;entryDx=0;entryDy=0;" edge="1" parent="1" source="Zey2sAS4SiDRhGzXNSXf-135" target="Zey2sAS4SiDRhGzXNSXf-144">
          <mxGeometry relative="1" as="geometry" />
        </mxCell>
        <mxCell id="Zey2sAS4SiDRhGzXNSXf-135" value="Is &lt;b&gt;Guess:&lt;br&gt;Position&lt;br&gt;&lt;/b&gt;Lower?" style="rhombus;whiteSpace=wrap;html=1;" vertex="1" parent="1">
          <mxGeometry x="225" y="1110" width="100" height="100" as="geometry" />
        </mxCell>
        <mxCell id="Zey2sAS4SiDRhGzXNSXf-149" style="edgeStyle=orthogonalEdgeStyle;rounded=0;orthogonalLoop=1;jettySize=auto;html=1;exitX=0.5;exitY=1;exitDx=0;exitDy=0;" edge="1" parent="1" source="Zey2sAS4SiDRhGzXNSXf-137" target="Zey2sAS4SiDRhGzXNSXf-148">
          <mxGeometry relative="1" as="geometry" />
        </mxCell>
        <mxCell id="Zey2sAS4SiDRhGzXNSXf-137" value="Set &lt;b&gt;Guess: Position: Correct&lt;/b&gt; to 1" style="rounded=1;whiteSpace=wrap;html=1;" vertex="1" parent="1">
          <mxGeometry x="555" y="930" width="120" height="60" as="geometry" />
        </mxCell>
        <mxCell id="Zey2sAS4SiDRhGzXNSXf-150" style="edgeStyle=orthogonalEdgeStyle;rounded=0;orthogonalLoop=1;jettySize=auto;html=1;exitX=1;exitY=0.5;exitDx=0;exitDy=0;" edge="1" parent="1" source="Zey2sAS4SiDRhGzXNSXf-139" target="Zey2sAS4SiDRhGzXNSXf-148">
          <mxGeometry relative="1" as="geometry" />
        </mxCell>
        <mxCell id="Zey2sAS4SiDRhGzXNSXf-139" value="Set &lt;b&gt;Guess: Position: Correct&lt;/b&gt; to 0" style="rounded=1;whiteSpace=wrap;html=1;" vertex="1" parent="1">
          <mxGeometry x="380" y="1040" width="120" height="60" as="geometry" />
        </mxCell>
        <mxCell id="Zey2sAS4SiDRhGzXNSXf-152" value="" style="edgeStyle=orthogonalEdgeStyle;rounded=0;orthogonalLoop=1;jettySize=auto;html=1;" edge="1" parent="1" source="Zey2sAS4SiDRhGzXNSXf-144" target="Zey2sAS4SiDRhGzXNSXf-151">
          <mxGeometry relative="1" as="geometry" />
        </mxCell>
        <mxCell id="Zey2sAS4SiDRhGzXNSXf-144" value="Set &lt;b&gt;Guess: Position: Correct&lt;/b&gt; to 1" style="rounded=1;whiteSpace=wrap;html=1;" vertex="1" parent="1">
          <mxGeometry x="380" y="1130" width="120" height="60" as="geometry" />
        </mxCell>
        <mxCell id="Zey2sAS4SiDRhGzXNSXf-153" value="" style="edgeStyle=orthogonalEdgeStyle;rounded=0;orthogonalLoop=1;jettySize=auto;html=1;" edge="1" parent="1" source="Zey2sAS4SiDRhGzXNSXf-145" target="Zey2sAS4SiDRhGzXNSXf-151">
          <mxGeometry relative="1" as="geometry" />
        </mxCell>
        <mxCell id="Zey2sAS4SiDRhGzXNSXf-145" value="Set &lt;b&gt;Guess: Position: Correct&lt;/b&gt; to 0" style="rounded=1;whiteSpace=wrap;html=1;" vertex="1" parent="1">
          <mxGeometry x="215" y="1250" width="120" height="60" as="geometry" />
        </mxCell>
        <mxCell id="Zey2sAS4SiDRhGzXNSXf-156" style="edgeStyle=orthogonalEdgeStyle;rounded=0;orthogonalLoop=1;jettySize=auto;html=1;exitX=0.5;exitY=1;exitDx=0;exitDy=0;" edge="1" parent="1" source="Zey2sAS4SiDRhGzXNSXf-148" target="Zey2sAS4SiDRhGzXNSXf-155">
          <mxGeometry relative="1" as="geometry" />
        </mxCell>
        <mxCell id="Zey2sAS4SiDRhGzXNSXf-148" value="" style="ellipse;whiteSpace=wrap;html=1;aspect=fixed;" vertex="1" parent="1">
          <mxGeometry x="595" y="1050" width="40" height="40" as="geometry" />
        </mxCell>
        <mxCell id="Zey2sAS4SiDRhGzXNSXf-157" style="edgeStyle=orthogonalEdgeStyle;rounded=0;orthogonalLoop=1;jettySize=auto;html=1;exitX=1;exitY=0.5;exitDx=0;exitDy=0;" edge="1" parent="1" source="Zey2sAS4SiDRhGzXNSXf-151" target="Zey2sAS4SiDRhGzXNSXf-155">
          <mxGeometry relative="1" as="geometry" />
        </mxCell>
        <mxCell id="Zey2sAS4SiDRhGzXNSXf-151" value="" style="ellipse;whiteSpace=wrap;html=1;aspect=fixed;" vertex="1" parent="1">
          <mxGeometry x="420" y="1260" width="40" height="40" as="geometry" />
        </mxCell>
        <mxCell id="Zey2sAS4SiDRhGzXNSXf-155" value="" style="ellipse;whiteSpace=wrap;html=1;aspect=fixed;" vertex="1" parent="1">
          <mxGeometry x="595" y="1260" width="40" height="40" as="geometry" />
        </mxCell>
        <mxCell id="Zey2sAS4SiDRhGzXNSXf-158" style="edgeStyle=orthogonalEdgeStyle;rounded=0;orthogonalLoop=1;jettySize=auto;html=1;exitX=1;exitY=0.5;exitDx=0;exitDy=0;entryX=0;entryY=0.5;entryDx=0;entryDy=0;" edge="1" parent="1" source="Zey2sAS4SiDRhGzXNSXf-155" target="Zey2sAS4SiDRhGzXNSXf-75">
          <mxGeometry relative="1" as="geometry">
            <mxPoint x="700" y="1180" as="targetPoint" />
          </mxGeometry>
        </mxCell>
        <mxCell id="Zey2sAS4SiDRhGzXNSXf-165" value="Yes" style="edgeStyle=orthogonalEdgeStyle;rounded=0;orthogonalLoop=1;jettySize=auto;html=1;exitX=1;exitY=0.5;exitDx=0;exitDy=0;entryX=0;entryY=0.5;entryDx=0;entryDy=0;" edge="1" parent="1" source="Zey2sAS4SiDRhGzXNSXf-159" target="Zey2sAS4SiDRhGzXNSXf-163">
          <mxGeometry relative="1" as="geometry" />
        </mxCell>
        <mxCell id="Zey2sAS4SiDRhGzXNSXf-166" value="No" style="edgeStyle=orthogonalEdgeStyle;rounded=0;orthogonalLoop=1;jettySize=auto;html=1;exitX=0.5;exitY=1;exitDx=0;exitDy=0;" edge="1" parent="1" source="Zey2sAS4SiDRhGzXNSXf-159" target="Zey2sAS4SiDRhGzXNSXf-164">
          <mxGeometry relative="1" as="geometry" />
        </mxCell>
        <mxCell id="Zey2sAS4SiDRhGzXNSXf-159" value="Is &lt;b&gt;Gamemode&lt;/b&gt;&lt;br&gt;set to Hard?" style="rhombus;whiteSpace=wrap;html=1;" vertex="1" parent="1">
          <mxGeometry x="702.5" y="1650" width="105" height="100" as="geometry" />
        </mxCell>
        <mxCell id="Zey2sAS4SiDRhGzXNSXf-167" value="" style="edgeStyle=orthogonalEdgeStyle;rounded=0;orthogonalLoop=1;jettySize=auto;html=1;" edge="1" parent="1" source="Zey2sAS4SiDRhGzXNSXf-161" target="Zey2sAS4SiDRhGzXNSXf-159">
          <mxGeometry relative="1" as="geometry" />
        </mxCell>
        <mxCell id="Zey2sAS4SiDRhGzXNSXf-161" value="Set&lt;b&gt;&amp;nbsp;Points &lt;/b&gt;to &lt;b&gt;Guess: Color: Correct&lt;/b&gt;+&lt;b&gt;Guess: Position: Correct&lt;/b&gt;" style="rounded=1;whiteSpace=wrap;html=1;" vertex="1" parent="1">
          <mxGeometry x="695" y="1540" width="120" height="60" as="geometry" />
        </mxCell>
        <mxCell id="Zey2sAS4SiDRhGzXNSXf-171" value="No" style="edgeStyle=orthogonalEdgeStyle;rounded=0;orthogonalLoop=1;jettySize=auto;html=1;exitX=0.5;exitY=1;exitDx=0;exitDy=0;" edge="1" parent="1" source="Zey2sAS4SiDRhGzXNSXf-163" target="Zey2sAS4SiDRhGzXNSXf-169">
          <mxGeometry relative="1" as="geometry" />
        </mxCell>
        <mxCell id="Zey2sAS4SiDRhGzXNSXf-173" value="Yes" style="edgeStyle=orthogonalEdgeStyle;rounded=0;orthogonalLoop=1;jettySize=auto;html=1;exitX=1;exitY=0.5;exitDx=0;exitDy=0;entryX=0.5;entryY=0;entryDx=0;entryDy=0;" edge="1" parent="1" source="Zey2sAS4SiDRhGzXNSXf-163" target="Zey2sAS4SiDRhGzXNSXf-168">
          <mxGeometry x="-0.84" relative="1" as="geometry">
            <mxPoint as="offset" />
          </mxGeometry>
        </mxCell>
        <mxCell id="Zey2sAS4SiDRhGzXNSXf-163" value="Is &lt;b&gt;Points&lt;/b&gt;&amp;gt;1?" style="rhombus;whiteSpace=wrap;html=1;" vertex="1" parent="1">
          <mxGeometry x="850" y="1660" width="80" height="80" as="geometry" />
        </mxCell>
        <mxCell id="Zey2sAS4SiDRhGzXNSXf-170" value="No" style="edgeStyle=orthogonalEdgeStyle;rounded=0;orthogonalLoop=1;jettySize=auto;html=1;exitX=0.5;exitY=1;exitDx=0;exitDy=0;entryX=0;entryY=0.5;entryDx=0;entryDy=0;" edge="1" parent="1" source="Zey2sAS4SiDRhGzXNSXf-164" target="Zey2sAS4SiDRhGzXNSXf-169">
          <mxGeometry relative="1" as="geometry" />
        </mxCell>
        <mxCell id="Zey2sAS4SiDRhGzXNSXf-172" value="Yes" style="edgeStyle=orthogonalEdgeStyle;rounded=0;orthogonalLoop=1;jettySize=auto;html=1;exitX=0;exitY=0.5;exitDx=0;exitDy=0;entryX=0;entryY=0.5;entryDx=0;entryDy=0;" edge="1" parent="1" source="Zey2sAS4SiDRhGzXNSXf-164" target="Zey2sAS4SiDRhGzXNSXf-168">
          <mxGeometry x="-0.9259" relative="1" as="geometry">
            <Array as="points">
              <mxPoint x="670" y="1830" />
              <mxPoint x="670" y="1970" />
              <mxPoint x="980" y="1970" />
              <mxPoint x="980" y="1830" />
            </Array>
            <mxPoint as="offset" />
          </mxGeometry>
        </mxCell>
        <mxCell id="Zey2sAS4SiDRhGzXNSXf-164" value="Is &lt;b&gt;Points&lt;/b&gt;&amp;gt;0?" style="rhombus;whiteSpace=wrap;html=1;" vertex="1" parent="1">
          <mxGeometry x="715" y="1790" width="80" height="80" as="geometry" />
        </mxCell>
        <mxCell id="Zey2sAS4SiDRhGzXNSXf-176" value="" style="edgeStyle=orthogonalEdgeStyle;rounded=0;orthogonalLoop=1;jettySize=auto;html=1;" edge="1" parent="1" source="Zey2sAS4SiDRhGzXNSXf-168" target="Zey2sAS4SiDRhGzXNSXf-174">
          <mxGeometry relative="1" as="geometry" />
        </mxCell>
        <mxCell id="Zey2sAS4SiDRhGzXNSXf-168" value="Set &lt;b&gt;Outcome&lt;/b&gt; to Win" style="rounded=1;whiteSpace=wrap;html=1;" vertex="1" parent="1">
          <mxGeometry x="1020" y="1800" width="120" height="60" as="geometry" />
        </mxCell>
        <mxCell id="Zey2sAS4SiDRhGzXNSXf-175" value="" style="edgeStyle=orthogonalEdgeStyle;rounded=0;orthogonalLoop=1;jettySize=auto;html=1;" edge="1" parent="1" source="Zey2sAS4SiDRhGzXNSXf-169" target="Zey2sAS4SiDRhGzXNSXf-174">
          <mxGeometry relative="1" as="geometry" />
        </mxCell>
        <mxCell id="Zey2sAS4SiDRhGzXNSXf-169" value="Set &lt;b&gt;Outcome &lt;/b&gt;to Loss" style="rounded=1;whiteSpace=wrap;html=1;" vertex="1" parent="1">
          <mxGeometry x="830" y="1860" width="120" height="60" as="geometry" />
        </mxCell>
        <mxCell id="Zey2sAS4SiDRhGzXNSXf-179" value="" style="edgeStyle=orthogonalEdgeStyle;rounded=0;orthogonalLoop=1;jettySize=auto;html=1;" edge="1" parent="1" source="Zey2sAS4SiDRhGzXNSXf-174" target="Zey2sAS4SiDRhGzXNSXf-177">
          <mxGeometry relative="1" as="geometry" />
        </mxCell>
        <mxCell id="Zey2sAS4SiDRhGzXNSXf-174" value="" style="ellipse;whiteSpace=wrap;html=1;aspect=fixed;" vertex="1" parent="1">
          <mxGeometry x="1060" y="1900" width="40" height="40" as="geometry" />
        </mxCell>
        <mxCell id="Zey2sAS4SiDRhGzXNSXf-180" value="" style="edgeStyle=orthogonalEdgeStyle;rounded=0;orthogonalLoop=1;jettySize=auto;html=1;" edge="1" parent="1" source="Zey2sAS4SiDRhGzXNSXf-177" target="Zey2sAS4SiDRhGzXNSXf-178">
          <mxGeometry relative="1" as="geometry" />
        </mxCell>
        <mxCell id="Zey2sAS4SiDRhGzXNSXf-177" value="End" style="ellipse;whiteSpace=wrap;html=1;fillColor=#f8cecc;strokeColor=#b85450;" vertex="1" parent="1">
          <mxGeometry x="1020" y="1980" width="120" height="80" as="geometry" />
        </mxCell>
        <mxCell id="Zey2sAS4SiDRhGzXNSXf-178" value="&lt;b&gt;Outcome&lt;/b&gt;" style="shape=parallelogram;perimeter=parallelogramPerimeter;whiteSpace=wrap;html=1;fixedSize=1;" vertex="1" parent="1">
          <mxGeometry x="1020" y="2110" width="120" height="60" as="geometry" />
        </mxCell>
      </root>
    </mxGraphModel>
  </diagram>
</mxfile>
